<svg xmlns="http://www.w3.org/2000/svg" xmlns:xlink="http://www.w3.org/1999/xlink" preserveAspectRatio="xMidYMid meet" version="1.0" viewBox="-4.7 -0.7 2496.1 2486.2" zoomAndPan="magnify" style="fill: rgb(0, 0, 0);" original_string_length="13692" width="1600px" height="1593.59px"><g id="__id0_st1et6y2en"><path d="m1847.16,1127.54c-5.4-96.62-8.57-201.41-63.17-283.85-53-80.02-137.54-126.71-224.3-155.19-47.45-15.57-96.22-26.73-144.84-37.45-51.6-11.38-103.53-21.1-155.88-27.8-97.75-12.5-197.41-12.9-293.93,9.45-88.36,20.46-173.71,60.49-242.14,123.32-64.13,58.88-112.69,139.65-131.25,227.24-3.53,16.64-5.92,33.4-7.2,50.22-12.87,50.56-19.04,103.04-18.62,155.33.74,92.5,22.38,183.3,61,266.3,37.3,80.19,90.39,152.53,153.03,212.75,67.37,64.78,145.78,115.1,229.92,152.1,85.84,37.75,177.03,60.57,269.47,71.04,89.65,10.16,183.63,7.49,269.42-24.19,42.44-15.67,81.66-38.18,116.75-67.71,32.56-27.39,60.38-60.61,83.89-96.7,48.44-74.36,77.18-161.69,90.72-250.19,16.45-107.48,13.18-216.45,7.13-324.69ZM1330.88,26.05c-4.94-12.12-14.9-21.9-25.75-24.82-7.12-1.92-14.68-1.57-21.77.78-14.28,1.95-28.17,10.23-37.05,23.58-1.05,1.58-2.04,3.22-2.98,4.91-3.58,4.41-6.61,9.28-9.21,14.49-3.19-5.86-7-11.3-11.5-16.18-13.6-14.78-31.01-24.32-49.43-24.24-37.95.17-69.73,37.68-73.47,82.97-3.91,47.35,23.66,89.4,40.6,129.07,4.25,9.94,8.31,19.99,12.21,30.15,1.88,4.91,3.72,9.85,5.52,14.81.96,2.65,1.9,5.3,2.84,7.96.02.07.12.33.23.65.3.89,1.11,3.22,1.22,3.56,7.01,20.72,13.3,41.81,18.84,63.19,6.25,24.14,11.56,48.64,15.88,73.39,2.1,12.02,3.97,24.11,5.6,36.24.85,6.34,1.61,12.69,2.36,19.04.16,1.53.32,3.05.48,4.58.36,3.59.71,7.18,1.03,10.78,1.15,12.56,8.3,24.24,19.87,24.24,18.17,0,29.47-4.94,31.47-18.28,11.93-79.23,23.86-158.46,35.78-237.69,1.34-8.87,2.67-17.74,4.01-26.61,9.45-27.2,17.66-55.06,24.46-83.38,5.53-23.03,10.97-46.73,13.59-70.56,1.64-14.9.72-28.99-4.84-42.62Zm-160.9,27.16s.03,0,.05,0c-.7.53-1.89.55-2.05.42.05-.01.11-.03.16-.05.37-.1,1.35-.15,1.84-.37Zm-408.96,67.56c-9.94-8.51-23.27-12.64-34.26-10.26-7.21,1.56-13.76,5.33-18.99,10.67-11.8,8.28-20.35,22-22.13,37.93-.21,1.89-.34,3.8-.4,5.72-1.16,5.56-1.62,11.28-1.55,17.1-5.53-3.75-11.4-6.84-17.63-9.12-18.86-6.91-38.71-7.41-55.05,1.1-33.66,17.53-44.72,65.44-27.29,107.41,18.22,43.88,61.99,68.63,95.22,96.13,8.33,6.89,16.55,13.96,24.66,21.21,3.92,3.51,7.82,7.05,11.69,10.64,2.06,1.91,4.12,3.84,6.17,5.77.05.05.26.24.5.47.68.65,2.46,2.36,2.71,2.6,15.73,15.21,30.98,31.07,45.7,47.53,16.62,18.59,32.56,37.94,47.74,57.96,7.37,9.73,14.57,19.61,21.58,29.65,3.66,5.24,7.24,10.54,10.82,15.84.84,1.28,1.69,2.56,2.52,3.85,1.97,3.02,3.92,6.06,5.85,9.1,6.77,10.64,18.49,17.74,28.77,12.45,16.15-8.32,23.93-17.89,19.6-30.67-25.69-75.89-51.39-151.79-77.08-227.68-2.88-8.5-5.75-16.99-8.63-25.49-4.06-28.51-9.53-57.03-16.46-85.32-5.63-23.01-11.66-46.57-20.24-68.94-5.37-14-12.64-26.1-23.82-35.67Zm-130.59,97.85s.03-.02.05-.03c-.38.79-1.43,1.36-1.63,1.31.04-.04.08-.08.12-.11.29-.26,1.13-.75,1.46-1.17Zm-332.58,247.4c-12.74-3.01-26.48-.57-35.15,6.57-5.69,4.69-9.8,11.04-11.99,18.18-6.7,12.76-8.01,28.88-2.29,43.86.68,1.78,1.44,3.54,2.27,5.27,1.51,5.48,3.73,10.77,6.46,15.91-6.63-.8-13.27-.85-19.85-.03-19.93,2.5-37.81,11.14-48.43,26.19-21.88,31-9.77,78.66,24.95,107.98,36.3,30.66,86.54,32.61,128.68,41.83,10.56,2.31,21.11,4.83,31.64,7.55,5.09,1.32,10.18,2.68,15.27,4.1,2.71.75,5.42,1.53,8.13,2.3.07.02.34.1.66.19.9.27,3.27.97,3.6,1.07,20.95,6.31,41.77,13.42,62.39,21.32,23.29,8.91,46.32,18.81,68.99,29.65,11.01,5.27,21.94,10.76,32.76,16.47,5.65,2.98,11.26,6.05,16.88,9.13,1.34.75,2.67,1.51,4.01,2.26,3.13,1.79,6.26,3.59,9.38,5.41,10.9,6.35,24.56,7.3,31.27-2.11,10.54-14.8,13.07-26.87,3.37-36.24-57.61-55.69-115.22-111.38-172.82-167.07-6.45-6.23-12.9-12.47-19.35-18.7-16.67-23.48-34.59-46.33-53.72-68.31-15.55-17.87-31.7-36.05-49.58-52.01-11.18-9.98-23.19-17.41-37.51-20.79Zm-71.25,146.8s.02-.03.03-.04c.03.87-.65,1.86-.85,1.91.02-.05.03-.11.05-.16.14-.36.66-1.19.77-1.71ZM44.32,985.1c-12.7,3.16-23.8,11.62-28.24,21.95-2.91,6.78-3.65,14.3-2.33,21.66-.11,14.41,6.11,29.34,18.05,40.04,1.42,1.27,2.9,2.48,4.43,3.65,3.85,4.17,8.25,7.86,13.03,11.18-6.26,2.33-12.18,5.32-17.66,9.07-16.57,11.35-28.5,27.23-31.05,45.47-5.25,37.58,27.35,74.39,71.64,84.55,46.31,10.62,91.86-10.66,133.54-21.77,10.45-2.78,20.98-5.38,31.58-7.78,5.13-1.16,10.28-2.28,15.45-3.35,2.76-.57,5.52-1.13,8.28-1.68.07-.01.35-.07.68-.13.93-.17,3.35-.63,3.69-.7,21.51-3.98,43.28-7.2,65.23-9.64,24.78-2.75,49.79-4.5,74.91-5.25,12.2-.36,24.43-.49,36.67-.37,6.39.06,12.79.22,19.18.38,1.53.06,3.07.11,4.6.18,3.6.15,7.21.33,10.81.51,12.6.66,25.18-4.76,26.83-16.2,2.59-17.98-.69-29.87-13.6-33.76-76.72-23.11-153.44-46.22-230.16-69.33-8.59-2.59-17.18-5.17-25.76-7.76-25.58-13.23-51.97-25.33-79.04-36.11-22.01-8.76-44.69-17.52-67.9-23.52-14.51-3.75-28.59-4.85-42.87-1.29Zm3.92,163.13s0-.03,0-.05c.42.76.28,1.95.12,2.09,0-.05-.02-.11-.02-.16-.04-.38.05-1.36-.1-1.87Zm8.51,414.42c-9.84,8.63-15.83,21.23-15.04,32.44.52,7.36,3.31,14.38,7.85,20.32,6.51,12.86,18.87,23.28,34.39,27.32,1.84.48,3.72.88,5.61,1.21,5.34,1.95,10.93,3.21,16.71,3.97-4.5,4.93-8.39,10.31-11.54,16.15-9.53,17.68-12.86,37.26-6.77,54.64,12.55,35.81,58.39,53.6,102.42,42.34,46.03-11.77,76.77-51.56,108.73-80.53,8.01-7.26,16.18-14.39,24.51-21.38,4.03-3.38,8.09-6.74,12.19-10.06,2.19-1.77,4.39-3.53,6.59-5.28.06-.04.28-.22.54-.43.75-.58,2.68-2.1,2.96-2.31,17.3-13.4,35.17-26.23,53.57-38.45,20.77-13.79,42.19-26.81,64.18-38.98,10.68-5.91,21.49-11.62,32.43-17.13,5.71-2.87,11.47-5.66,17.22-8.45,1.39-.65,2.78-1.3,4.17-1.95,3.27-1.52,6.56-3.01,9.85-4.5,11.5-5.19,20.2-15.77,16.42-26.69-5.93-17.17-14.3-26.23-27.56-23.78-78.78,14.6-157.56,29.21-236.35,43.81-8.82,1.63-17.64,3.27-26.46,4.9-28.8-.05-57.81,1.29-86.8,4.11-23.57,2.29-47.75,4.9-71.13,10.2-14.62,3.32-27.63,8.79-38.7,18.49Zm78.22,143.21s-.01-.03-.02-.05c.73.48,1.14,1.61,1.06,1.8-.03-.05-.07-.09-.1-.13-.21-.32-.58-1.23-.95-1.62Zm197.42,364.47c-4.8,12.18-4.35,26.12,1.49,35.73,3.83,6.3,9.53,11.27,16.29,14.47,11.68,8.45,27.44,12.05,43.08,8.53,1.86-.42,3.71-.92,5.54-1.49,5.64-.72,11.19-2.15,16.67-4.13-1.74,6.45-2.74,13.01-2.86,19.64-.37,20.08,5.64,39.01,19.01,51.67,27.56,26.08,76.46,20.9,110.43-9.28,35.52-31.55,44.62-81,59.76-121.39,3.79-10.12,7.79-20.2,11.99-30.23,2.03-4.85,4.11-9.7,6.23-14.53,1.13-2.58,2.29-5.15,3.44-7.72.03-.06.15-.32.28-.63.4-.86,1.42-3.09,1.57-3.41,9.24-19.83,19.25-39.43,30-58.71,12.14-21.78,25.22-43.16,39.19-64.05,6.79-10.15,13.78-20.18,20.98-30.08,3.76-5.17,7.6-10.29,11.44-15.4.94-1.21,1.87-2.43,2.81-3.64,2.21-2.85,4.45-5.68,6.69-8.51,7.84-9.88,10.73-23.27,2.37-31.25-13.14-12.54-24.73-16.77-35.39-8.51-63.34,49.07-126.68,98.15-190.02,147.22-7.09,5.49-14.18,10.99-21.27,16.48-25.62,13.15-50.79,27.63-75.27,43.42-19.9,12.84-40.2,26.23-58.55,41.65-11.48,9.65-20.54,20.47-25.93,34.16Zm135.14,91.46s-.03-.02-.04-.03c.87.1,1.75.91,1.77,1.11-.05-.03-.1-.05-.15-.07-.34-.19-1.08-.83-1.58-1Zm342.46,233.53c1.31,13.02,8.11,25.21,17.69,31.08,6.29,3.85,13.63,5.65,21.1,5.4,14.25,2.16,29.91-1.86,42.2-12.16,1.46-1.22,2.87-2.52,4.24-3.86,4.68-3.22,8.96-7.04,12.93-11.3,1.41,6.53,3.53,12.82,6.46,18.77,8.87,18.02,22.88,32.09,40.57,37.22,36.45,10.56,77.54-16.45,93.91-58.85,17.12-44.32,2.55-92.44-2.49-135.28-1.26-10.74-2.33-21.53-3.19-32.37-.42-5.25-.79-10.5-1.11-15.77-.17-2.81-.33-5.62-.48-8.43,0-.07-.02-.35-.04-.69-.04-.94-.15-3.4-.17-3.76-.87-21.86-.95-43.86-.23-65.94.82-24.92,2.65-49.92,5.49-74.89,1.38-12.13,3-24.25,4.87-36.35.97-6.32,2.04-12.62,3.11-18.93.28-1.51.55-3.02.83-4.53.66-3.55,1.35-7.09,2.05-10.63,2.45-12.37-1.12-25.6-12.21-28.87-17.43-5.13-29.66-3.58-35.35,8.65-33.82,72.64-67.64,145.27-101.46,217.91-3.79,8.13-7.57,16.26-11.36,24.39-16.75,23.43-32.49,47.83-47.02,73.08-11.81,20.53-23.72,41.73-32.96,63.85-5.78,13.83-8.88,27.61-7.4,42.25Zm162.02,19.39s-.03,0-.05-.01c.82-.31,1.97,0,2.08.18-.06,0-.11,0-.17,0-.38-.01-1.34-.24-1.87-.17Zm411.39,50.7c7.13,10.97,18.76,18.7,29.97,19.52,7.36.54,14.71-1.22,21.23-4.87,13.66-4.61,25.73-15.35,31.94-30.14.74-1.76,1.4-3.55,2-5.38,2.69-5.01,4.74-10.36,6.31-15.97,4.24,5.16,9.01,9.78,14.34,13.73,16.14,11.95,35.04,18.05,53.12,14.5,37.24-7.31,61.38-50.15,56.52-95.33-5.09-47.24-40.08-83.34-64.19-119.11-6.04-8.96-11.93-18.07-17.67-27.31-2.77-4.47-5.51-8.97-8.21-13.51-1.44-2.42-2.87-4.85-4.29-7.28-.04-.06-.18-.3-.35-.6-.47-.82-1.69-2.96-1.87-3.26-10.79-19.03-20.94-38.55-30.41-58.5-10.69-22.52-20.52-45.59-29.42-69.09-4.33-11.41-8.44-22.93-12.33-34.54-2.03-6.06-3.97-12.16-5.91-18.25-.45-1.47-.89-2.94-1.33-4.4-1.03-3.46-2.05-6.92-3.05-10.39-3.49-12.12-12.72-22.24-24.08-20.06-17.84,3.42-28.01,10.41-27.46,23.88,3.21,80.06,6.43,160.12,9.64,240.18.36,8.96.72,17.92,1.08,26.89-4.16,28.5-6.97,57.4-8.31,86.5-1.09,23.66-1.96,47.96-.05,71.85,1.2,14.94,4.76,28.6,12.78,40.94Zm152.91-56.99s-.03,0-.05.01c.58-.65,1.75-.9,1.93-.79-.05.02-.1.05-.15.08-.35.17-1.3.4-1.73.71Zm388.91-143.4c11.37,6.49,25.24,8.03,35.58,3.62,6.78-2.89,12.51-7.82,16.64-14.06,10.03-10.35,15.84-25.44,14.59-41.42-.15-1.9-.38-3.8-.68-5.7.1-5.68-.54-11.38-1.7-17.09,6.13,2.64,12.49,4.57,19.04,5.63,19.82,3.23,39.41-.01,53.86-11.45,29.75-23.56,31.59-72.69,6.57-110.63-26.16-39.66-73.81-55.72-111.62-76.47-9.48-5.2-18.88-10.59-28.21-16.18-4.51-2.7-9.01-5.45-13.49-8.24-2.39-1.49-4.77-3-7.15-4.5-.06-.04-.3-.19-.58-.37-.79-.51-2.86-1.85-3.16-2.05-18.31-11.97-36.28-24.68-53.83-38.07-19.82-15.13-39.12-31.12-57.81-47.93-9.07-8.16-18.01-16.52-26.78-25.05-4.58-4.46-9.1-8.99-13.61-13.52-1.07-1.1-2.14-2.2-3.2-3.3-2.5-2.6-4.99-5.21-7.47-7.84-8.66-9.17-21.5-13.94-30.6-6.8-14.29,11.22-20.13,22.08-13.47,33.81,39.53,69.69,79.07,139.38,118.6,209.08,4.43,7.8,8.85,15.6,13.28,23.4,9.36,27.23,20.1,54.21,32.24,80.7,9.87,21.53,20.23,43.53,32.87,63.89,7.91,12.74,17.33,23.25,30.12,30.54Zm109.81-120.7s-.03.02-.04.03c.22-.84,1.15-1.6,1.35-1.59-.03.04-.06.09-.1.13-.23.31-.97.95-1.22,1.42Zm280.01-305.63c13.08.56,26.11-4.42,33.29-13.08,4.71-5.68,7.54-12.69,8.35-20.12,4.17-13.79,2.43-29.87-6.01-43.5-1-1.62-2.08-3.2-3.22-4.75-2.52-5.09-5.69-9.87-9.34-14.41,6.66-.46,13.19-1.66,19.5-3.71,19.1-6.21,35.03-18.07,42.63-34.85,15.65-34.57-5.22-79.09-44.84-101.35-41.42-23.27-91.13-15.72-134.25-16.84-10.81-.28-21.64-.77-32.49-1.46-5.25-.33-10.51-.72-15.77-1.15-2.8-.23-5.61-.48-8.42-.73-.07,0-.35-.03-.69-.06-.94-.1-3.39-.34-3.74-.37-21.76-2.25-43.55-5.31-65.29-9.18-24.55-4.36-49.03-9.74-73.34-16.12-11.81-3.1-23.57-6.43-35.28-10-6.11-1.86-12.2-3.82-18.29-5.78-1.45-.49-2.91-.97-4.36-1.47-3.41-1.16-6.82-2.35-10.23-3.55-11.9-4.19-25.5-2.54-30.31,7.97-7.57,16.52-7.77,28.85,3.52,36.23,67.07,43.84,134.14,87.68,201.2,131.51,7.51,4.91,15.02,9.81,22.52,14.72,20.8,19.92,42.7,38.98,65.62,56.96,18.64,14.62,37.92,29.43,58.49,41.74,12.86,7.7,26.06,12.72,40.76,13.35Zm42.31-157.6s-.01.03-.02.05c-.19-.85.28-1.95.47-2.03,0,.05-.01.11-.02.16-.07.38-.43,1.29-.43,1.82Zm108.88-399.95c11.88-5.49,21.18-15.9,23.6-26.87,1.58-7.2.89-14.73-1.79-21.71-2.61-14.17-11.53-27.66-25.27-35.92-1.63-.98-3.32-1.89-5.04-2.75-4.57-3.37-9.58-6.17-14.91-8.53,5.71-3.46,10.96-7.52,15.63-12.23,14.13-14.27,22.86-32.11,21.93-50.5-1.92-37.9-40.87-67.91-86.29-69.54-47.48-1.71-88.21,27.78-127.05,46.54-9.73,4.7-19.59,9.23-29.55,13.59-4.82,2.11-9.67,4.18-14.54,6.2-2.6,1.08-5.21,2.14-7.82,3.21-.07.03-.33.13-.64.26-.88.35-3.17,1.25-3.5,1.38-20.38,7.97-41.15,15.23-62.24,21.75-23.82,7.37-48.05,13.8-72.58,19.27-11.91,2.65-23.9,5.08-35.94,7.27-6.29,1.14-12.6,2.19-18.91,3.24-1.52.23-3.03.47-4.55.69-3.57.53-7.14,1.04-10.72,1.53-12.49,1.73-23.83,9.42-23.29,20.97.84,18.15,6.31,29.2,19.72,30.59,79.7,8.24,159.4,16.48,239.1,24.73,8.92.92,17.84,1.85,26.77,2.77,27.61,8.18,55.82,15.09,84.43,20.57,23.26,4.46,47.19,8.79,71.11,10.3,14.96.95,28.99-.63,42.35-6.81Zm-34.59-159.47s0,.03,0,.05c-.56-.67-.64-1.86-.51-2.03.02.05.04.1.05.16.12.37.21,1.34.45,1.82Zm-86.44-405.39c8.04-10.33,11.55-23.83,8.66-34.7-1.89-7.13-5.96-13.5-11.54-18.48-8.81-11.4-22.92-19.31-38.92-20.35-1.9-.12-3.81-.16-5.74-.14-5.61-.9-11.34-1.09-17.16-.75,3.49-5.69,6.3-11.71,8.29-18.04,6.03-19.16,5.61-39.01-3.65-54.94-19.07-32.81-67.44-41.64-108.56-22.28-42.99,20.24-65.68,65.1-91.61,99.57-6.5,8.64-13.18,17.18-20.04,25.62-3.32,4.08-6.68,8.14-10.08,12.17-1.81,2.15-3.65,4.29-5.48,6.43-.05.05-.23.27-.45.52-.62.71-2.24,2.57-2.47,2.83-14.46,16.41-29.6,32.39-45.36,47.85-17.8,17.46-36.39,34.28-55.69,50.38-9.37,7.82-18.92,15.46-28.62,22.93-5.07,3.9-10.19,7.72-15.32,11.54-1.24.9-2.48,1.8-3.73,2.7-2.93,2.11-5.87,4.19-8.82,6.27-10.31,7.26-16.87,19.29-11.1,29.31,9.06,15.75,18.98,23.07,31.54,18.16,74.62-29.19,149.24-58.37,223.86-87.56,8.35-3.27,16.71-6.53,25.06-9.8,28.29-5.38,56.53-12.16,84.47-20.39,22.72-6.7,45.97-13.81,67.93-23.42,13.73-6.01,25.48-13.84,34.52-25.45Zm-103.8-125.91s.02.03.03.04c-.8-.34-1.42-1.36-1.38-1.57.04.04.08.07.12.11.27.27.8,1.1,1.23,1.41Zm-262.56-320.75c2.42-12.86-.65-26.48-8.2-34.81-4.95-5.47-11.48-9.27-18.72-11.14-13.06-6.1-29.22-6.66-43.92-.26-1.75.76-3.47,1.6-5.16,2.51-5.4,1.77-10.58,4.22-15.59,7.19.49-6.66.24-13.29-.89-19.83-3.42-19.79-12.88-37.25-28.41-47.16-31.98-20.42-79.03-6.12-106.71,29.93-28.94,37.68-28.56,87.96-35.82,130.48-1.82,10.66-3.85,21.31-6.08,31.95-1.08,5.15-2.21,10.3-3.38,15.44-.63,2.74-1.27,5.48-1.92,8.23-.02.07-.08.34-.16.67-.23.92-.82,3.31-.9,3.65-5.34,21.22-11.47,42.35-18.4,63.32-7.82,23.67-16.64,47.14-26.42,70.29-4.75,11.24-9.73,22.41-14.93,33.49-2.72,5.79-5.52,11.53-8.33,17.28-.69,1.37-1.38,2.74-2.08,4.11-1.64,3.21-3.3,6.42-4.97,9.62-5.84,11.18-6.16,24.87,3.56,31.14,15.27,9.84,27.44,11.81,36.36,1.69,52.96-60.13,105.92-120.25,158.88-180.38,5.93-6.73,11.86-13.46,17.79-20.19,22.68-17.74,44.68-36.7,65.74-56.82,17.13-16.36,34.54-33.34,49.65-51.94,9.45-11.63,16.31-23.98,19.03-38.44Zm-149.95-64.37s.03.02.05.03c-.87.07-1.89-.56-1.95-.76.05.02.11.03.16.05.37.12,1.22.61,1.74.69Z" style="fill: rgb(255, 176, 0);"/></g></svg>